<?xml version="1.0" encoding="utf-8"?>
<!-- Generator: Adobe Illustrator 21.0.2, SVG Export Plug-In . SVG Version: 6.00 Build 0)  -->
<svg version="1.1" id="Capa_1" xmlns="http://www.w3.org/2000/svg" xmlns:xlink="http://www.w3.org/1999/xlink" x="0px" y="0px"
	 viewBox="0 0 512 512" style="enable-background:new 0 0 512 512;" xml:space="preserve">
<style type="text/css">
	.st0{fill:#3F51B5;}
</style>
<g>
	<g>
		<g>
			<polygon class="st0" points="59.9,90.2 22.8,53.2 0,76 59.9,135.9 168.2,27.6 145.3,4.7 			"/>
			<polygon class="st0" points="59.9,267.8 22.8,230.8 0,253.6 59.9,313.5 168.2,205.2 145.3,182.4 			"/>
			<polygon class="st0" points="59.9,461.6 22.8,424.6 0,447.4 59.9,507.3 168.2,399 145.3,376.1 			"/>
			<rect x="415.1" y="419.8" class="st0" width="32.3" height="32.3"/>
			<rect x="479.7" y="419.8" class="st0" width="32.3" height="32.3"/>
			<rect x="221.3" y="419.8" class="st0" width="161.5" height="32.3"/>
			<rect x="415.1" y="226.1" class="st0" width="32.3" height="32.3"/>
			<rect x="479.7" y="226.1" class="st0" width="32.3" height="32.3"/>
			<rect x="221.3" y="226.1" class="st0" width="161.5" height="32.3"/>
			<rect x="479.7" y="64.6" class="st0" width="32.3" height="32.3"/>
			<rect x="415.1" y="64.6" class="st0" width="32.3" height="32.3"/>
			<rect x="221.3" y="64.6" class="st0" width="161.5" height="32.3"/>
		</g>
	</g>
</g>
</svg>
