<?xml version="1.0" encoding="iso-8859-1"?>
<!-- Generator: Adobe Illustrator 19.0.0, SVG Export Plug-In . SVG Version: 6.00 Build 0)  -->
<svg version="1.1" id="Layer_1" xmlns="http://www.w3.org/2000/svg" xmlns:xlink="http://www.w3.org/1999/xlink" x="0px" y="0px"
	 viewBox="0 0 511.933 511.933" style="enable-background:new 0 0 511.933 511.933;" xml:space="preserve">
<g transform="translate(1 1)">
	<g>
		<path style="fill:#434C6D;" d="M92.833,212.3H24.567v-14.251c0-6.272,5.077-11.349,11.349-11.349h45.568
			c6.272,0,11.349,5.077,11.349,11.349V212.3z"/>
		<path style="fill:#434C6D;" d="M58.7,203.767c-4.71,0-8.533-3.823-8.533-8.533v-68.267c0-4.71,3.823-8.533,8.533-8.533
			s8.533,3.823,8.533,8.533v68.267C67.233,199.944,63.41,203.767,58.7,203.767"/>
	</g>
	<path style="fill:#7383BF;" d="M297.633,212.3H212.3v-14.217c0-6.289,5.094-11.383,11.383-11.383h62.566
		c6.289,0,11.383,5.094,11.383,11.383V212.3H297.633z"/>
	<path style="fill:#434C6D;" d="M306.132,220.8H203.8v-22.717c0-10.963,8.919-19.883,19.883-19.883h62.566
		c10.964,0,19.883,8.919,19.883,19.883V220.8z M220.8,203.8h68.332v-5.716c0-1.59-1.293-2.883-2.883-2.883h-62.566
		c-1.59,0-2.883,1.293-2.883,2.883L220.8,203.8L220.8,203.8z"/>
	<polygon style="fill:#7383BF;" points="237.9,186.7 272.033,186.7 272.033,161.1 237.9,161.1 	"/>
	<polygon style="fill:none;stroke:#434C6D;stroke-width:17;stroke-linecap:round;" points="237.9,186.7 272.033,186.7 
		272.033,161.1 237.9,161.1 	"/>
	<path style="fill:#7383BF;" d="M365.9,161.1H144.033c-4.71,0-8.533-3.823-8.533-8.533V16.033c0-4.71,3.823-8.533,8.533-8.533H365.9
		c4.71,0,8.533,3.823,8.533,8.533v136.533C374.433,157.277,370.61,161.1,365.9,161.1"/>
	<path style="fill:none;stroke:#434C6D;stroke-width:17;stroke-linecap:round;" d="M365.9,161.1H144.033
		c-4.71,0-8.533-3.823-8.533-8.533V16.033c0-4.71,3.823-8.533,8.533-8.533H365.9c4.71,0,8.533,3.823,8.533,8.533v136.533
		C374.433,157.277,370.61,161.1,365.9,161.1L365.9,161.1z"/>
	<path style="fill:#7383BF;" d="M135.5,126.967v25.6c0,4.71,3.823,8.533,8.533,8.533H365.9c4.71,0,8.533-3.823,8.533-8.533v-25.6
		H135.5z"/>
	<path style="fill:#434C6D;" d="M365.901,169.6H144.033c-9.392,0-17.033-7.641-17.033-17.033v-34.1h255.933v34.1
		C382.933,161.959,375.292,169.6,365.901,169.6z M144,135.467v17.1l221.9,0.033l0.021-17.133L144,135.467L144,135.467z"/>
	<path style="fill:#7383BF;" d="M490.453,175.473c-1.485-4.463-6.298-6.895-10.795-5.393l-13.611,4.531l2.253-13.508h-51.2
		l8.533,51.2h34.133l3.106-18.637l22.187-7.398C489.532,184.774,491.947,179.944,490.453,175.473"/>
	<polygon style="fill:#845C46;" points="7.5,246.433 502.433,246.433 502.433,212.3 7.5,212.3 	"/>
	<path style="fill:#553323;" d="M510.933,254.933H-1V203.8h511.933V254.933z M16,237.933h477.933V220.8H16V237.933z"/>
	<g>
		<path style="fill:#434C6D;" d="M161.1,58.7c-2.185,0-4.369-0.836-6.033-2.5c-3.337-3.337-3.337-8.73,0-12.066l17.067-17.067
			c3.337-3.337,8.73-3.337,12.066,0c3.337,3.337,3.337,8.73,0,12.066L167.133,56.2C165.469,57.864,163.285,58.7,161.1,58.7"/>
		<path style="fill:#434C6D;" d="M169.633,92.716c-2.193,0-4.386-0.845-6.05-2.517c-3.328-3.345-3.311-8.747,0.034-12.066
			l42.65-42.53c3.337-3.337,8.73-3.337,12.066,0c3.337,3.328,3.337,8.73,0,12.066l-42.684,42.564
			C173.985,91.889,171.809,92.716,169.633,92.716"/>
	</g>
	<polygon style="fill:#845C46;" points="24.567,502.433 178.167,502.433 178.167,246.433 24.567,246.433 	"/>
	<path style="fill:#553323;" d="M186.667,510.933h-170.6v-273h170.6V510.933z M33.067,493.933h136.6v-239h-136.6V493.933z"/>
	<g>
		<polygon style="fill:#553324;" points="50.167,340.3 152.567,340.3 152.567,272.033 50.167,272.033 		"/>
		<polygon style="fill:#553324;" points="50.167,468.3 152.567,468.3 152.567,374.433 50.167,374.433 		"/>
	</g>
	<g>
		<path style="fill:#D7B740;" d="M109.9,314.7H92.833c-4.71,0-8.533-3.823-8.533-8.533s3.823-8.533,8.533-8.533H109.9
			c4.71,0,8.533,3.823,8.533,8.533S114.61,314.7,109.9,314.7"/>
		<path style="fill:#D7B740;" d="M109.9,417.1H92.833c-4.71,0-8.533-3.823-8.533-8.533s3.823-8.533,8.533-8.533H109.9
			c4.71,0,8.533,3.823,8.533,8.533S114.61,417.1,109.9,417.1"/>
	</g>
	<polygon style="fill:#845C46;" points="331.767,502.433 485.367,502.433 485.367,246.433 331.767,246.433 	"/>
	<polygon style="fill:none;stroke:#553323;stroke-width:17;" points="331.767,502.433 485.367,502.433 485.367,246.433 
		331.767,246.433 	"/>
	<g>
		<polygon style="fill:#553324;" points="357.367,340.3 459.767,340.3 459.767,272.033 357.367,272.033 		"/>
		<polygon style="fill:#553324;" points="357.367,468.3 459.767,468.3 459.767,374.433 357.367,374.433 		"/>
	</g>
	<g>
		<path style="fill:#D7B740;" d="M417.1,314.7h-17.067c-4.71,0-8.533-3.823-8.533-8.533s3.823-8.533,8.533-8.533H417.1
			c4.71,0,8.533,3.823,8.533,8.533S421.81,314.7,417.1,314.7"/>
		<path style="fill:#D7B740;" d="M417.1,417.1h-17.067c-4.71,0-8.533-3.823-8.533-8.533s3.823-8.533,8.533-8.533H417.1
			c4.71,0,8.533,3.823,8.533,8.533S421.81,417.1,417.1,417.1"/>
	</g>
	<polygon style="fill:#EA6148;" points="101.367,126.967 16.033,126.967 33.1,41.633 84.3,41.633 	"/>
</g>
<g>
</g>
<g>
</g>
<g>
</g>
<g>
</g>
<g>
</g>
<g>
</g>
<g>
</g>
<g>
</g>
<g>
</g>
<g>
</g>
<g>
</g>
<g>
</g>
<g>
</g>
<g>
</g>
<g>
</g>
</svg>
