<?xml version="1.0" encoding="utf-8"?>
<!-- Generator: Adobe Illustrator 21.0.2, SVG Export Plug-In . SVG Version: 6.00 Build 0)  -->
<svg version="1.1" id="Capa_1" xmlns="http://www.w3.org/2000/svg" xmlns:xlink="http://www.w3.org/1999/xlink" x="0px" y="0px"
	 viewBox="0 0 512 512" style="enable-background:new 0 0 512 512;" xml:space="preserve">
<style type="text/css">
	.st0{fill:#3F51B5;}
</style>
<g>
	<g>
		<g>
			<path class="st0" d="M349.5,273c-4.7,0-8.5,3.8-8.5,8.5v204.6c0,4.7-3.8,8.5-8.5,8.5H25.6c-4.7,0-8.5-3.8-8.5-8.5V25.9
				c0-4.7,3.8-8.5,8.5-8.5h306.9c4.7,0,8.5,3.8,8.5,8.5V77c0,4.7,3.8,8.5,8.5,8.5c4.7,0,8.5-3.8,8.5-8.5V25.9
				c0-14.1-11.4-25.6-25.6-25.6H25.6C11.4,0.3,0,11.7,0,25.9v460.3c0,14.1,11.4,25.6,25.6,25.6h306.9c14.1,0,25.6-11.4,25.6-25.6
				V281.6C358,276.9,354.2,273,349.5,273z"/>
			<path class="st0" d="M499.5,29.2c-16.6-16.6-43.5-16.7-60.1-0.1l0,0l-56.1,56.1L89.8,378.7c-0.1,0.1-0.1,0.2-0.2,0.3
				c-0.7,0.7-1.2,1.5-1.6,2.4l-0.1,0.1l-36.1,84.2c-1.1,2.6-0.9,5.7,0.7,8.1c1.6,2.4,4.3,3.8,7.1,3.8c1.2,0,2.3-0.2,3.4-0.7
				l84.2-36.1l0.1-0.1c0.9-0.4,1.7-0.9,2.4-1.6c0.1-0.1,0.2-0.1,0.3-0.2l293.5-293.5l56.1-56.1C516.2,72.7,516.1,45.8,499.5,29.2z
				 M75.9,452.9l22.8-53.2l30.4,30.4L75.9,452.9z M144.1,420.9l-36.2-36.2l281.4-281.4l36.2,36.2L144.1,420.9z M437.5,127.4
				l-36.2-36.2l13.9-13.9l36.2,36.2L437.5,127.4z M487.6,77.4L487.6,77.4l-24.2,24.1l-36.1-36.2l24.1-24.1c6.5-6.5,15.9-9,24.7-6.6
				c8.8,2.4,15.7,9.3,18.1,18.1C496.6,61.5,494.1,70.9,487.6,77.4z"/>
			<path class="st0" d="M281.3,77H76.7c-4.7,0-8.5,3.8-8.5,8.5S72,94,76.7,94h204.6c4.7,0,8.5-3.8,8.5-8.5S286,77,281.3,77z"/>
			<path class="st0" d="M289.8,136.7c0-4.7-3.8-8.5-8.5-8.5H76.7c-4.7,0-8.5,3.8-8.5,8.5s3.8,8.5,8.5,8.5h204.6
				C286,145.2,289.8,141.4,289.8,136.7z"/>
			<path class="st0" d="M76.7,179.3c-4.7,0-8.5,3.8-8.5,8.5s3.8,8.5,8.5,8.5h153.4c4.7,0,8.5-3.8,8.5-8.5s-3.8-8.5-8.5-8.5H76.7z"/>
		</g>
	</g>
</g>
</svg>
