<?xml version="1.0" encoding="iso-8859-1"?>
<!-- Generator: Adobe Illustrator 19.0.0, SVG Export Plug-In . SVG Version: 6.00 Build 0)  -->
<svg version="1.1" id="Capa_1" xmlns="http://www.w3.org/2000/svg" xmlns:xlink="http://www.w3.org/1999/xlink" x="0px" y="0px"
	 viewBox="0 0 511.733 511.733" style="enable-background:new 0 0 511.733 511.733;" xml:space="preserve">
<path style="fill:#F7B64C;" d="M456.533,456.533L422.4,422.4c54.4-54.4,54.4-144,0-198.4s-144-54.4-198.4,0l-34.133-34.133
	c73.6-73.6,193.067-73.6,266.667,0C530.133,263.467,530.133,382.933,456.533,456.533z"/>
<path style="fill:#FFD15C;" d="M188.8,452.267C84.267,452.267,0,368,0,263.467C0,160,84.267,74.667,188.8,74.667
	s188.8,84.267,188.8,188.8S293.333,452.267,188.8,452.267z M188.8,123.733c-77.867,0-140.8,62.933-140.8,140.8
	s62.933,140.8,140.8,140.8s140.8-62.933,140.8-140.8C329.6,186.667,266.667,123.733,188.8,123.733z"/>
<polygon style="fill:#F3705A;" points="285.867,39.467 188.8,130.133 91.733,39.467 "/>
<polygon style="fill:#F05540;" points="285.867,39.467 91.733,39.467 126.933,0 250.667,0 "/>
<path style="fill:#F7B64C;" d="M456.533,456.533c-73.6,73.6-193.067,73.6-266.667,0s-73.6-193.067,0-266.667L224,224
	c-54.4,54.4-54.4,144,0,198.4s144,54.4,198.4,0L456.533,456.533z"/>
<g>
</g>
<g>
</g>
<g>
</g>
<g>
</g>
<g>
</g>
<g>
</g>
<g>
</g>
<g>
</g>
<g>
</g>
<g>
</g>
<g>
</g>
<g>
</g>
<g>
</g>
<g>
</g>
<g>
</g>
</svg>
