<?xml version="1.0" encoding="utf-8"?>
<!-- Generator: Adobe Illustrator 21.0.2, SVG Export Plug-In . SVG Version: 6.00 Build 0)  -->
<svg version="1.1" id="Capa_1" xmlns="http://www.w3.org/2000/svg" xmlns:xlink="http://www.w3.org/1999/xlink" x="0px" y="0px"
	 viewBox="0 0 512 512" style="enable-background:new 0 0 512 512;" xml:space="preserve">
<style type="text/css">
	.st0{fill:#3F51B5;}
</style>
<g>
	<g>
		<path class="st0" d="M362.9,0h-294c-16.5,0-30,13.5-30,30v102c0,5.5,4.5,10,10,10s10-4.5,10-10V30c0-5.5,4.5-10,10-10h294
			c5.5,0,10,4.5,10,10v372c0,5.5-4.5,10-10,10h-294c-5.5,0-10-4.5-10-10V216.3c0-5.5-4.5-10-10-10s-10,4.5-10,10V402
			c0,16.5,13.5,30,30,30h294c16.5,0,30-13.5,30-30V30C392.9,13.5,379.5,0,362.9,0z"/>
	</g>
</g>
<g>
	<g>
		<path class="st0" d="M56,169.7c-1.9-1.9-4.4-2.9-7.1-2.9s-5.2,1.1-7.1,2.9c-1.9,1.9-2.9,4.4-2.9,7.1c0,2.6,1.1,5.2,2.9,7.1
			c1.9,1.9,4.4,2.9,7.1,2.9c2.6,0,5.2-1.1,7.1-2.9c1.9-1.9,2.9-4.4,2.9-7.1C58.9,174.1,57.9,171.6,56,169.7z"/>
	</g>
</g>
<g>
	<g>
		<path class="st0" d="M96.1,455c-1.9-1.9-4.4-2.9-7.1-2.9c-2.6,0-5.2,1.1-7.1,2.9c-1.9,1.9-2.9,4.4-2.9,7.1c0,2.6,1.1,5.2,2.9,7.1
			c1.9,1.9,4.4,2.9,7.1,2.9c2.6,0,5.2-1.1,7.1-2.9c1.9-1.9,2.9-4.4,2.9-7.1C99,459.4,97.9,456.9,96.1,455z"/>
	</g>
</g>
<g>
	<g>
		<path class="st0" d="M423,40.1c-5.5,0-10,4.5-10,10v392c0,5.5-4.5,10-10,10H129c-5.5,0-10,4.5-10,10s4.5,10,10,10h274
			c16.5,0,30-13.5,30-30v-392C433,44.5,428.5,40.1,423,40.1z"/>
	</g>
</g>
<g>
	<g>
		<path class="st0" d="M463.1,80c-5.5,0-10,4.5-10,10v392c0,5.5-4.5,10-10,10h-314c-5.5,0-10,4.5-10,10s4.5,10,10,10h314
			c16.5,0,30-13.5,30-30V90C473.1,84.5,468.6,80,463.1,80z"/>
	</g>
</g>
<g>
	<g>
		<path class="st0" d="M200.9,74h-96c-5.5,0-10,4.5-10,10v96c0,5.5,4.5,10,10,10h96c5.5,0,10-4.5,10-10V84
			C210.9,78.5,206.5,74,200.9,74z M190.9,170h-76V94h76V170z"/>
	</g>
</g>
<g>
	<g>
		<path class="st0" d="M168.8,235.4c-3.9-3.9-10.2-3.9-14.1,0L128,262l-12.4-12.4c-3.9-3.9-10.2-3.9-14.1,0
			c-3.9,3.9-3.9,10.2,0,14.1l19.4,19.4c1.9,1.9,4.4,2.9,7.1,2.9c2.7,0,5.2-1.1,7.1-2.9l33.7-33.7
			C172.7,245.6,172.7,239.3,168.8,235.4z"/>
	</g>
</g>
<g>
	<g>
		<path class="st0" d="M332.6,249H215.9c-5.5,0-10,4.5-10,10s4.5,10,10,10h116.7c5.5,0,10-4.5,10-10
			C342.6,253.5,338.1,249,332.6,249z"/>
	</g>
</g>
<g>
	<g>
		<path class="st0" d="M326.9,74h-70c-5.5,0-10,4.5-10,10s4.5,10,10,10h70c5.5,0,10-4.5,10-10S332.5,74,326.9,74z"/>
	</g>
</g>
<g>
	<g>
		<path class="st0" d="M326.9,122h-70c-5.5,0-10,4.5-10,10c0,5.5,4.5,10,10,10h70c5.5,0,10-4.5,10-10S332.5,122,326.9,122z"/>
	</g>
</g>
<g>
	<g>
		<path class="st0" d="M326.9,170h-70c-5.5,0-10,4.5-10,10s4.5,10,10,10h70c5.5,0,10-4.5,10-10S332.5,170,326.9,170z"/>
	</g>
</g>
<g>
	<g>
		<path class="st0" d="M168.8,311.8c-3.9-3.9-10.2-3.9-14.1,0L128,338.4L115.7,326c-3.9-3.9-10.2-3.9-14.1,0
			c-3.9,3.9-3.9,10.2,0,14.1l19.4,19.4c1.9,1.9,4.4,2.9,7.1,2.9c2.7,0,5.2-1.1,7.1-2.9l33.7-33.7C172.7,322,172.7,315.7,168.8,311.8
			z"/>
	</g>
</g>
<g>
	<g>
		<path class="st0" d="M332.6,325H215.9c-5.5,0-10,4.5-10,10s4.5,10,10,10h116.7c5.5,0,10-4.5,10-10S338.1,325,332.6,325z"/>
	</g>
</g>
</svg>
