<?xml version="1.0" encoding="utf-8"?>
<!-- Generator: Adobe Illustrator 17.0.0, SVG Export Plug-In . SVG Version: 6.00 Build 0)  -->
<!DOCTYPE svg PUBLIC "-//W3C//DTD SVG 1.1//EN" "http://www.w3.org/Graphics/SVG/1.1/DTD/svg11.dtd">
<svg version="1.1" id="Layer_1" xmlns="http://www.w3.org/2000/svg" xmlns:xlink="http://www.w3.org/1999/xlink" x="0px" y="0px"
	 width="960px" height="960px" viewBox="0 0 960 960" enable-background="new 0 0 960 960" xml:space="preserve">
<g>
	<path fill="#888888" d="M454.194,562.925c0.344,0,0.516,0,0.86,0c23.57-0.516,42.495-19.613,42.495-43.183
		c0-23.914-19.441-43.183-43.183-43.183c-23.914,0-43.183,19.441-43.183,43.183c-0.344,23.57,18.581,42.667,42.151,43.183
		C453.677,562.925,453.849,562.925,454.194,562.925z"/>
	<path fill="#888888" d="M702.796,520.602c0-24.43-19.785-44.215-44.215-44.215s-44.215,19.785-44.215,44.215
		c0,24.258,19.785,44.215,44.215,44.215C683.011,564.817,702.796,545.032,702.796,520.602z"/>
	<path fill="#888888" d="M201.118,354.237c28.043,0,50.581-22.71,50.581-50.753c0-28.043-22.71-50.581-50.581-50.581
		c-28.043,0-50.753,22.71-50.753,50.581C150.538,331.527,173.247,354.237,201.118,354.237z"/>
	<path fill="#888888" d="M751.656,722.581c3.441,3.441,8.086,5.505,12.559,5.505c3.097,0,6.194-0.86,8.946-2.753
		c7.742-5.161,9.978-16.516,4.817-25.118l-15.828-25.634l-5.677-9.462l-23.914-39.914c-17.376-31.312-34.581-51.269-61.935-51.269
		H646.71c-27.355,0-44.559,19.957-61.935,51.269l-23.398,38.538l12.903,39.226c0.688,1.72,1.204,3.613,1.376,5.333L611.441,656
		l-33.893,119.054h36.817l3.613,57.29l-10.323,6.366v15.312h44.731l1.892-78.968h8.774l1.892,78.968h44.731V838.71l-10.323-6.366
		l3.613-57.29h36.817L705.892,656l36.301,53.505l3.613,5.333l3.269,4.817C749.763,720.86,750.624,721.72,751.656,722.581z"/>
	<path fill="#888888" d="M342.538,561.032l-2.581-7.914l-1.548-4.473L336.86,544l-39.054-118.021
		c-10.839-34.065-40.602-59.699-81.376-59.699h-30.28c-40.946,0-70.538,25.634-81.376,59.699L60.043,561.204
		c-3.785,11.355,1.893,23.57,12.559,27.355c2.237,0.86,4.473,1.204,6.71,1.204c8.602,0,16.688-5.505,19.785-14.452l41.634-117.849
		l10.495,47.484c-21.677,57.806-57.29,186.667-57.29,186.667h52.301l17.72,139.183l-5.333,7.054v16.516h39.742V691.613h5.677
		v162.753h39.742v-16.516l-5.333-7.054l17.72-139.183h52.301c0,0-35.613-128.86-56.946-186.667l10.495-47.484l40.602,114.753
		l1.032,3.097c1.376,3.785,3.613,6.71,6.538,9.118c2.581,2.237,5.677,3.785,9.118,4.645c1.376,0.344,2.753,0.688,4.301,0.688
		c2.237,0,4.473-0.344,6.71-1.204C340.645,584.602,346.323,572.387,342.538,561.032z"/>
	<path fill="#888888" d="M555.527,673.204l-1.72-5.161l-1.72-5.161l-18.237-55.226c-7.054-22.882-25.29-36.473-51.269-36.473H454.71
		c-0.172,0-0.516,0-0.688,0s-0.516,0-0.688,0H431.14l-83.441-13.935l1.204,3.785c4.817,14.28-3.441,29.935-18.409,35.441
		l76.043,19.097v81.548l8.602,136.086l-10.151,6.194v14.968h43.527l2.581-108.903h5.849l2.581,108.903h43.527v-14.968l-9.978-6.194
		l8.602-136.086v-59.183l26.667,69.677l4.473,11.871c1.204,2.581,2.925,4.645,4.989,6.366c3.441,2.925,7.742,4.817,12.215,4.817
		c2.237,0,4.473-0.344,6.538-1.204c2.581-1.032,4.817-2.581,6.538-4.473c4.473-4.817,6.022-12.043,3.441-18.753L555.527,673.204z"/>
	<path fill="#888888" d="M916.473,369.72l-107.011-73.443V147.613c0-10.323-9.118-18.753-20.129-18.753h-78.28
		c-11.183,0-20.129,8.43-20.129,18.753v67.309L534.194,107.355c-6.71-4.645-15.828-4.817-22.882-0.516L280.43,247.914
		c-9.118,5.677-11.699,17.204-5.677,25.806c6.194,8.602,18.581,11.011,27.871,5.333l219.183-133.849l321.892,220.731H349.935
		c-11.183,0-20.129,8.43-20.129,18.753s9.118,18.753,20.129,18.753h460.559v375.226h-42.667c-11.183,0-20.129,9.118-20.129,20.129
		c0,11.183,9.118,20.129,20.129,20.129h62.624c11.183,0,20.129-8.946,20.301-20.129V403.441h54.021
		c8.602,0,16.344-5.161,18.925-12.903C926.28,382.968,923.527,374.538,916.473,369.72z M731.183,241.032v-74.667h38.021v102.281
		l-38.101-26.149C731.144,242.013,731.183,241.527,731.183,241.032z"/>
</g>
</svg>
