<svg id="Layer_1" xmlns="http://www.w3.org/2000/svg" viewBox="0 0 38 38"><style>.st0{fill:#FFFFFF;} .st1{fill:#F0F0F0;} .st2{fill:#CCDB28;} .st3{fill:#B3BF23;} .st4{fill:#E9E9E9;} .st5{fill:none;stroke:#000000;stroke-width:0.35;stroke-linecap:round;stroke-miterlimit:10;} .st6{fill:#323232;} .st7{fill:#181818;} .st8{fill:#FCFFDF;stroke:#000000;stroke-width:0.35;stroke-linecap:round;stroke-miterlimit:10;} .st9{fill:#DEDEDE;stroke:#000000;stroke-width:0.35;stroke-linejoin:round;} .st10{fill:none;stroke:#000000;stroke-width:0.5;stroke-linejoin:round;} .st11{fill:#D5D5D5;} .st12{fill:#F3F3F3;} .st13{fill:#D4D4D4;stroke:#000000;stroke-width:0.35;stroke-linecap:round;stroke-miterlimit:10;} .st14{fill:none;stroke:#BABABA;stroke-width:0.5;stroke-linecap:round;stroke-linejoin:round;} .st15{opacity:0.51;fill:url(#SVGID_1_);enable-background:new ;}</style><title>category_icon</title><path class="st0" d="M32 16.9s.1-.1-.1-.5-2.6-4.1-2.6-4.1-.6-.9-2.8-.9H5s-.9.1-1.1 1.6l-1 4v5.7l-.5.5v1.1c.1.4.6.7 1.1.7h1.4c-.3-.5-.4-1-.4-1.6 0-1.9 1.6-3.5 3.5-3.5s3.5 1.6 3.5 3.5c0 .6-.1 1.1-.4 1.6h15.7c-.3-.5-.4-1-.4-1.6 0-1.9 1.6-3.5 3.5-3.5s3.5 1.6 3.5 3.5c0 .6-.1 1.1-.4 1.6h1.4c.5-.2.9-.5 1.1-1v-5.8L32 16.9z"/><path class="st1" d="M32 16.3c-.2-.4-2.6-4.1-2.6-4.1s-.6-.9-2.8-.9H5s-.9.1-1.1 1.6l-1 4v5.7l-.5.5v1.1c.1.5.6.8 1.1.8h1.4c-.7-1.3-.5-2.9.6-4 .4-2.4 1.2-5.1 2.2-5.5l21.7-.5c0 .1 1.2-.3 2.6 1.3z"/><path class="st2" d="M2.9 22.7l-.5.5v1.1c.1.4.6.8 1.1.7h1.4c-.3-.5-.4-1-.4-1.6 0-.2 0-.5.1-.7H2.9z"/><path class="st3" d="M4.1 25c-.4-.7-.4-1.6 0-2.4h.5l.3 2.4h-.8z"/><path class="st4" d="M7.3 21.7H25v1.1H7.3z"/><path class="st5" d="M2.9 22.7h22.2"/><path class="st2" d="M34.4 25c.5-.2.9-.5 1.1-1v-3.2l-1.3-.2-1.4.8c.7 1 .8 2.4.2 3.5h1.4z"/><circle class="st6" cx="29.9" cy="23.4" r="3.5"/><path class="st7" d="M26.5 24.1c0-.2.1-.4.2-.6 0-.1.1-.1.1-.2.1-.1.2-.2.2-.3l.1-.2c.1-.1.2-.2.2-.3l.2-.2.3-.2.1-.2.3-.2.2-.1c.1-.1.3-.1.4-.1l.2-.1c.4-.1.9-.1 1.3 0l.2.1c.1 0 .3.1.4.1l.2.1.3.2.6.1.3.2.2.2c.1.1.2.2.2.3l.2.2c.1.1.1.2.2.4 0 .1.1.1.1.2.1.2.1.4.2.6.4-1.9-.8-3.7-2.7-4.1-1.9-.4-3.7.8-4.1 2.7-.2.4-.2.9-.1 1.4z"/><path class="st8" d="M35.5 19.7h-1.3v1.1s0 .8.7.8h.6"/><circle class="st9" cx="29.9" cy="23.4" r="1.7"/><circle class="st6" cx="8" cy="23.4" r="3.5"/><path class="st7" d="M4.6 24.1c0-.2.1-.4.2-.6 0-.1.1-.1.1-.2s.1-.2.2-.3l.2-.2c.1-.1.2-.2.2-.3l.2-.2.2-.3.2-.1.3-.2.2-.1c.1-.1.3-.1.4-.1l.2-.1c.4-.1.9-.1 1.3 0l.2.1c.1 0 .3.1.4.1l.2.1.3.2.2.1.3.2.2.2c.1.1.2.2.2.3l.5.3c.1.1.1.2.2.4 0 .1.1.1.1.2.1.2.1.4.2.6.4-1.9-.8-3.7-2.7-4.1-1.9-.4-3.7.8-4.1 2.7-.2.4-.2.9-.1 1.3z"/><circle class="st9" cx="8" cy="23.4" r="1.7"/><path class="st10" d="M32 16.9s.1-.1-.1-.5-2.6-4.1-2.6-4.1-.6-.9-2.8-.9H5s-.9.1-1.1 1.6l-1 4v5.7l-.5.5v1.1c.1.4.6.7 1.1.7h1.4c-.3-.5-.4-1-.4-1.6 0-1.9 1.6-3.5 3.5-3.5s3.5 1.6 3.5 3.5c0 .6-.1 1.1-.4 1.6h15.7c-.3-.5-.4-1-.4-1.6 0-1.9 1.6-3.5 3.5-3.5s3.5 1.6 3.5 3.5c0 .6-.1 1.1-.4 1.6h1.4c.5-.2.9-.5 1.1-1v-5.8L32 16.9z"/><path class="st5" d="M35.5 22.7h-1.2"/><path class="st11" d="M7.7 12.8h17.9v4H7.7z"/><path class="st12" d="M7.7 14h15.8v1.6H7.7z"/><path class="st5" d="M7.7 12.8h17.9v4H7.7z"/><path class="st13" d="M26.6 12.8v4h1.8s.8 0 1-.7c-.1-1.2-.7-2.2-1.6-3-.3-.3-.7-.4-1.2-.3zM6.8 16.8h-2l.4-3c.1-.6.6-1 1.1-1h.4l.1 4z"/><path class="st5" d="M21.1 12.8v4"/><path class="st14" d="M21.1 18.2v3.5"/><path class="st5" d="M34.2 20.7l-1.4.8"/><radialGradient id="SVGID_1_" cx=".534" cy="-633.747" r="11.33" gradientTransform="matrix(1.05 0 0 -.03 18.42 8.04)" gradientUnits="userSpaceOnUse"><stop offset="0" stop-opacity=".2"/><stop offset=".16" stop-color="#231F20" stop-opacity=".2"/><stop offset=".85" stop-color="#231F20" stop-opacity=".15"/><stop offset=".94" stop-color="#231F20" stop-opacity=".1"/><stop offset=".99" stop-color="#8C8E24" stop-opacity=".04"/><stop offset="1" stop-color="#CFD527" stop-opacity="0"/></radialGradient><path class="st15" d="M35.4 27.1c0 1 3.2 1.7-15.6 1.7S2.3 28 2.3 27.1 1 25.4 19.8 25.4s15.6.7 15.6 1.7z"/></svg>