<?xml version="1.0" encoding="utf-8"?>
<!-- Generator: Adobe Illustrator 21.0.2, SVG Export Plug-In . SVG Version: 6.00 Build 0)  -->
<svg version="1.1" id="_x32_" xmlns="http://www.w3.org/2000/svg" xmlns:xlink="http://www.w3.org/1999/xlink" x="0px" y="0px"
	 viewBox="0 0 512 512" style="enable-background:new 0 0 512 512;" xml:space="preserve">
<style type="text/css">
	.st0{fill:#878787;}
</style>
<g>
	<path class="st0" d="M106.7,42.4c0-10-8.1-18-18-18H82c-9.9,0-18,8.1-18,18v49.9h42.7V42.4z"/>
	<path class="st0" d="M192,42.4c0-10-8.1-18-18-18h-6.6c-9.9,0-18,8.1-18,18v49.9H192L192,42.4L192,42.4z"/>
	<path class="st0" d="M277.3,42.4c0-10-8.1-18-18-18h-6.6c-9.9,0-18,8.1-18,18v49.9h42.7L277.3,42.4L277.3,42.4z"/>
	<path class="st0" d="M362.7,42.4c0-10-8.1-18-18-18H338c-9.9,0-18,8.1-18,18v49.9h42.7V42.4z"/>
	<path class="st0" d="M64,469.6c0,10,8.1,18,18,18h6.6c9.9,0,18-8.1,18-18v-49.9H64V469.6z"/>
	<path class="st0" d="M149.3,469.6c0,10,8.1,18,18,18h6.6c9.9,0,18-8.1,18-18v-49.9h-42.7L149.3,469.6L149.3,469.6z"/>
	<path class="st0" d="M234.7,469.6c0,10,8.1,18,18,18h6.6c9.9,0,18-8.1,18-18v-49.9h-42.7L234.7,469.6L234.7,469.6z"/>
	<path class="st0" d="M320,469.6c0,10,8.1,18,18,18h6.6c9.9,0,18-8.1,18-18v-49.9H320L320,469.6L320,469.6z"/>
	<path class="st0" d="M448,42.4c0-10-8.1-18-18-18h-6.6c-9.9,0-18,8.1-18,18v49.9H448V42.4z"/>
	<path class="st0" d="M405.3,469.6c0,10,8.1,18,18,18h6.6c10,0,18-8.1,18-18v-49.9h-42.7V469.6z"/>
	<path class="st0" d="M168.2,224H149c-0.5,0-0.8,0.3-0.8,0.8v24c0,0.5,0.3,0.8,0.8,0.8h19.2c8.2,0,13.8-5,13.8-12.7
		C181.9,229,176.4,224,168.2,224z"/>
	<polygon class="st0" points="250.5,232.3 238.5,267.3 262.8,267.3 250.9,232.3 	"/>
	<path class="st0" d="M0,119V393h512V119H0z M198.4,300h-14.7c-1.1,0-1.6-0.4-2-1.3l-17.2-35.1H149c-0.5,0-0.8,0.3-0.8,0.8v34.3
		c0,0.8-0.5,1.3-1.3,1.3h-13c-0.8,0-1.3-0.5-1.3-1.3v-87.4c0-0.8,0.5-1.3,1.3-1.3h34.8c16.6,0,28.7,11,28.7,26.9
		c0,11.8-6.8,20.9-17.1,24.8l18.9,36.7C199.8,299.2,199.3,300,198.4,300z M288.3,300h-13c-0.9,0-1.5-0.4-1.7-1.3l-6-17.5h-33.9
		l-6,17.5c-0.3,0.9-0.8,1.3-1.7,1.3h-12.8c-0.9,0-1.2-0.5-0.9-1.3l30.9-87.4c0.3-0.8,0.8-1.3,1.7-1.3H257c0.9,0,1.5,0.5,1.7,1.3
		l30.5,87.4C289.5,299.5,289.2,300,288.3,300z M381.8,298.7c0,0.8-0.5,1.3-1.3,1.3h-11.5c-0.8,0-1.3-0.5-1.3-1.3v-55.1h-0.5L348,286
		c-0.5,1.2-1.3,1.7-2.5,1.7h-7.7c-1.2,0-2-0.5-2.5-1.7l-19.1-42.4h-0.5v55.1c0,0.8-0.5,1.3-1.3,1.3h-11.5c-0.8,0-1.3-0.5-1.3-1.3
		v-87.4c0-0.8,0.5-1.3,1.3-1.3h11.8c1.2,0,1.9,0.4,2.3,1.3l24.8,55.5h0.5l24.4-55.5c0.4-0.9,1.1-1.3,2.3-1.3h11.7
		c0.8,0,1.3,0.5,1.3,1.3L381.8,298.7L381.8,298.7z"/>
</g>
</svg>
