<?xml version="1.0" encoding="utf-8"?>
<!-- Generator: Adobe Illustrator 21.0.2, SVG Export Plug-In . SVG Version: 6.00 Build 0)  -->
<svg version="1.1" id="_x32_" xmlns="http://www.w3.org/2000/svg" xmlns:xlink="http://www.w3.org/1999/xlink" x="0px" y="0px"
	 viewBox="0 0 512 512" style="enable-background:new 0 0 512 512;" xml:space="preserve">
<style type="text/css">
	.st0{fill:#878787;}
</style>
<g>
	<path class="st0" d="M459.8,147.6V34.4c0-19-15.4-34.4-34.4-34.4h-268c-9.1,0-17.9,3.6-24.3,10.1L62.3,80.9
		c-6.4,6.4-10.1,15.2-10.1,24.3v372.5c0,19,15.4,34.4,34.4,34.4h338.8c19,0,34.4-15.4,34.4-34.4V218h-33.5v-70.4H459.8z M299.3,38.4
		h32.6v77.4h-32.6V38.4z M238.9,38.4h32.6v77.4h-32.6V38.4z M178.5,38.4h32.6v77.4h-32.6V38.4z M118.2,63.7h32.6v77.4h-32.6
		C118.2,141.1,118.2,63.7,118.2,63.7z M388.2,428.2H123.3v-45.3h264.9L388.2,428.2L388.2,428.2z M392.2,115.8h-32.6V38.4h32.6V115.8
		z"/>
</g>
</svg>
